<svg width="48.000000" height="48.000000" viewBox="0 0 48 48" fill="none" xmlns="http://www.w3.org/2000/svg" xmlns:xlink="http://www.w3.org/1999/xlink">
	<desc>
			Created with Pixso.
	</desc>
	<defs/>
	<path id="Vector" d="M24 0C10.74 0 0 10.74 0 24C0 37.25 10.74 48 24 48C37.25 48 48 37.25 48 24C48 10.74 37.25 0 24 0ZM33.23 27.07C33.23 27.07 35.35 29.17 35.87 30.14C35.89 30.16 35.89 30.18 35.9 30.19C36.11 30.55 36.16 30.83 36.06 31.03C35.88 31.38 35.28 31.55 35.08 31.56L31.33 31.56C31.07 31.56 30.52 31.5 29.86 31.04C29.35 30.68 28.85 30.1 28.37 29.54C27.64 28.69 27.01 27.96 26.37 27.96C26.29 27.96 26.21 27.97 26.14 28C25.66 28.15 25.04 28.84 25.04 30.66C25.04 31.23 24.59 31.56 24.27 31.56L22.56 31.56C21.97 31.56 18.92 31.36 16.22 28.51C12.92 25.02 9.94 18.03 9.92 17.96C9.73 17.51 10.12 17.27 10.54 17.27L14.33 17.27C14.83 17.27 15 17.57 15.11 17.85C15.25 18.16 15.74 19.42 16.56 20.85C17.87 23.16 18.68 24.1 19.33 24.1C19.45 24.1 19.57 24.07 19.68 24.01C20.52 23.54 20.36 20.53 20.33 19.9C20.33 19.79 20.32 18.56 19.89 17.96C19.58 17.54 19.05 17.37 18.73 17.32C18.86 17.14 19.03 16.99 19.23 16.89C19.81 16.6 20.86 16.56 21.89 16.56L22.47 16.56C23.6 16.58 23.89 16.65 24.29 16.75C25.12 16.95 25.14 17.48 25.06 19.3C25.04 19.82 25.02 20.4 25.02 21.1C25.02 21.25 25.01 21.4 25.01 21.58C24.99 22.5 24.96 23.56 25.61 23.99C25.7 24.04 25.79 24.07 25.9 24.07C26.12 24.07 26.81 24.07 28.66 20.89C29.23 19.86 29.73 18.8 30.15 17.7C30.19 17.64 30.3 17.44 30.43 17.36C30.52 17.31 30.63 17.29 30.74 17.29L35.19 17.29C35.68 17.29 36.01 17.36 36.07 17.55C36.18 17.85 36.05 18.75 34.02 21.51L33.11 22.7C31.27 25.12 31.27 25.24 33.23 27.07Z" fill="#94504D" fill-opacity="1.000000" fill-rule="nonzero"/>
</svg>
