<svg width="34" height="34" viewBox="0 0 34 34" fill="none" xmlns="http://www.w3.org/2000/svg">
<path d="M17.002 0.333252C26.207 0.333252 33.6687 7.79492 33.6687 16.9999C33.6687 26.2049 26.207 33.6666 17.002 33.6666C14.0566 33.6713 11.1631 32.8919 8.61868 31.4083L0.342017 33.6666L2.59535 25.3866C1.11051 22.8414 0.33043 19.9466 0.33535 16.9999C0.33535 7.79492 7.79702 0.333252 17.002 0.333252ZM11.322 9.16658L10.9887 9.17992C10.7729 9.19306 10.562 9.24975 10.3687 9.34659C10.1879 9.44897 10.0228 9.57696 9.87868 9.72659C9.67868 9.91492 9.56535 10.0783 9.44368 10.2366C8.82722 11.0381 8.4953 12.0221 8.50035 13.0333C8.50368 13.8499 8.71702 14.6449 9.05035 15.3883C9.73202 16.8916 10.8537 18.4833 12.3337 19.9583C12.6903 20.3133 13.0404 20.6699 13.417 21.0016C15.256 22.6207 17.4474 23.7883 19.817 24.4116L20.7637 24.5566C21.072 24.5733 21.3804 24.5499 21.6903 24.5349C22.1757 24.5099 22.6497 24.3784 23.0787 24.1499C23.2969 24.0375 23.5099 23.9151 23.717 23.7833C23.717 23.7833 23.7887 23.7366 23.9254 23.6333C24.1504 23.4666 24.2887 23.3483 24.4754 23.1533C24.6137 23.0099 24.7337 22.8416 24.8253 22.6499C24.9553 22.3783 25.0853 21.8599 25.1387 21.4283C25.1787 21.0983 25.167 20.9183 25.162 20.8066C25.1553 20.6283 25.007 20.4433 24.8454 20.3649L23.8753 19.9299C23.8753 19.9299 22.4253 19.2983 21.5387 18.8949C21.4459 18.8544 21.3465 18.8312 21.2453 18.8266C21.1313 18.8149 21.0161 18.8277 20.9074 18.8642C20.7988 18.9007 20.6992 18.9601 20.6153 19.0382C20.607 19.0349 20.4953 19.1299 19.2903 20.5899C19.2212 20.6829 19.1259 20.7531 19.0167 20.7917C18.9075 20.8303 18.7892 20.8355 18.677 20.8066C18.5684 20.7775 18.4621 20.7407 18.3587 20.6966C18.152 20.6099 18.0803 20.5766 17.9387 20.5166C16.9821 20.0992 16.0965 19.5352 15.3137 18.8449C15.1037 18.6616 14.9087 18.4616 14.7087 18.2683C14.053 17.6403 13.4816 16.9299 13.0087 16.1549L12.9103 15.9966C12.8397 15.8902 12.7826 15.7754 12.7404 15.6549C12.677 15.4099 12.842 15.2133 12.842 15.2133C12.842 15.2133 13.247 14.7699 13.4354 14.5299C13.6187 14.2966 13.7737 14.0699 13.8737 13.9083C14.0703 13.5916 14.132 13.2666 14.0287 13.0149C13.562 11.8749 13.0787 10.7399 12.582 9.61325C12.4837 9.38992 12.192 9.22992 11.927 9.19825C11.837 9.18825 11.747 9.17825 11.657 9.17159C11.4332 9.16047 11.2089 9.16269 10.9853 9.17825L11.322 9.16658Z" fill="#94504D"/>
</svg>
